<?xml version="1.0" encoding="UTF-8" standalone="no"?>
<svg
   xmlns:dc="http://purl.org/dc/elements/1.1/"
   xmlns:cc="http://creativecommons.org/ns#"
   xmlns:rdf="http://www.w3.org/1999/02/22-rdf-syntax-ns#"
   xmlns:svg="http://www.w3.org/2000/svg"
   xmlns="http://www.w3.org/2000/svg"
   viewBox="0 0 579.65332 573.18665"
   height="573.18665"
   width="579.65332"
   xml:space="preserve"
   id="svg2"
   version="1.1"><metadata
     id="metadata8"><rdf:RDF><cc:Work
         rdf:about=""><dc:format>image/svg+xml</dc:format><dc:type
           rdf:resource="http://purl.org/dc/dcmitype/StillImage" /></cc:Work></rdf:RDF></metadata><defs
     id="defs6" /><g
     transform="matrix(1.3333333,0,0,-1.3333333,0,573.18667)"
     id="g10"><g
       transform="scale(0.1)"
       id="g12"><path
         id="path14"
         style="fill:#5665b9;fill-opacity:1;fill-rule:nonzero;stroke:none"
         d="m 4136.5,2152.69 c 0,-1071.47 -878.77,-1940.081 -1962.8,-1940.081 -1084.03,0 -1962.802,868.611 -1962.802,1940.081 0,1071.47 878.772,1940.07 1962.802,1940.07 1084.03,0 1962.8,-868.6 1962.8,-1940.07" /><path
         id="path16"
         style="fill:#3e56af;fill-opacity:1;fill-rule:nonzero;stroke:none"
         d="m 4054.96,2152.69 c -0.07,-51.03 -1.99,-102.03 -6.01,-152.91 -2.05,-26.02 -4.63,-52.01 -7.74,-77.93 -0.64,-5.34 -1.3,-10.67 -1.99,-16 -2.68,-20.87 1.89,12.63 -0.31,-2.27 -1.96,-13.24 -3.89,-26.47 -6.04,-39.69 -15.99,-98.26 -39.66,-195.25 -70.76,-289.82 -15.23,-46.29 -32.4,-91.84 -50.91,-136.91 -5.78,-14.08 6.2,14.27 0.14,0.33 -2.42,-5.56 -4.81,-11.14 -7.25,-16.68 -5.22,-11.87 -10.57,-23.7 -16.03,-35.46 -10.18,-21.92 -20.78,-43.65 -31.78,-65.17 -44.2,-86.47 -94.94,-169.58 -151.61,-248.44 -6.5,-9.05 -13.08,-18.04 -19.74,-26.98 -3.58,-4.81 -7.19,-9.6 -10.82,-14.38 -1.55,-2.04 -3.12,-4.09 -4.67,-6.14 -10.67,-14.04 8.27,10.37 1.74,2.28 -15.04,-18.68 -29.84,-37.54 -45.29,-55.899 -31.42,-37.351 -64.25,-73.519 -98.38,-108.43 -33.55,-34.3 -68.36,-67.382 -104.33,-99.152 -18.01,-15.898 -36.3,-31.457 -54.88,-46.687 -9.29,-7.622 -18.66,-15.153 -28.09,-22.602 -3.26,-2.57 -10.08,-6.02 -12.17,-9.539 0.68,1.148 15.57,11.891 4.26,3.309 -2.75,-2.079 -5.47,-4.161 -8.21,-6.239 C 3246.36,622.52 3164.27,569.52 3078.7,522.898 3036,499.629 2992.43,477.949 2948.13,457.93 c -11.12,-5.032 -22.29,-9.961 -33.5,-14.782 -2.4,-1.027 -4.84,-2 -7.21,-3.089 -0.31,-0.129 15.82,6.589 7.4,3.14 -6.46,-2.648 -12.91,-5.34 -19.39,-7.969 -23.54,-9.531 -47.27,-18.601 -71.16,-27.21 -93.33,-33.629 -189.21,-60.149 -286.55,-79.329 -24.66,-4.859 -49.42,-9.242 -74.25,-13.16 -7.11,-1.121 -32.41,-0.949 -37.49,-5.531 -0.11,-0.109 17.41,2.25 8.23,1.102 -3.59,-0.454 -7.18,-0.93 -10.77,-1.391 -6.3,-0.789 -12.6,-1.551 -18.91,-2.27 -51.77,-6 -103.78,-9.953 -155.86,-11.89 -103.85,-3.86 -208.01,0.289 -311.21,12.519 -5.4,0.641 -10.8,1.301 -16.19,1.981 -3.59,0.461 -7.18,0.988 -10.77,1.398 -0.34,0.043 17.53,-2.457 8.24,-1.078 -13.39,1.981 -26.78,3.859 -40.14,6.008 -24.81,3.98 -49.55,8.43 -74.19,13.351 -48.86,9.782 -97.36,21.391 -145.33,34.829 -47.52,13.3 -94.53,28.402 -140.9,45.25 -23.87,8.671 -47.56,17.8 -71.07,27.39 -4.86,1.992 -9.69,4.012 -14.53,6 -10.07,4.141 14.98,-6.437 5,-2.109 -2.41,1.039 -4.82,2.058 -7.22,3.101 -12,5.168 -23.95,10.469 -35.85,15.891 -89.06,40.547 -175.07,87.77 -257.11,141.117 -40.4,26.281 -79.83,54.031 -118.2,83.199 -2.05,1.563 -4.08,3.141 -6.14,4.704 -8.57,6.429 12.66,-9.981 4.27,-3.301 -4.04,3.211 -8.12,6.34 -12.16,9.551 -10.1,7.988 -20.119,16.078 -30.053,24.257 -18.531,15.289 -36.789,30.903 -54.754,46.84 -72.39,64.262 -140.035,133.883 -202.156,208.11 -7.144,8.531 -14.219,17.132 -21.223,25.801 -3.769,4.66 -7.511,9.34 -11.238,14.04 -1.598,2.01 -3.187,4.02 -4.781,6.04 -0.914,1.17 -11.43,14.75 -3.106,3.91 7.633,-9.93 -3.89,5.12 -6.132,8.08 -3.102,4.1 -6.192,8.21 -9.262,12.33 -7.68,10.31 -15.254,20.7 -22.731,31.16 -28.441,39.8 -55.379,80.68 -80.73,122.51 -24.977,41.22 -48.414,83.38 -70.234,126.36 -10.95,21.55 -21.485,43.31 -31.61,65.26 -5.066,11 -10.039,22.05 -14.894,33.14 -2.09,4.75 -4.129,9.53 -6.203,14.3 -2.817,6.46 -0.477,9.68 2.132,-5.13 -0.55,3.12 -2.777,6.67 -3.992,9.61 -37.652,91.22 -68.226,185.36 -91.344,281.31 -11.621,48.23 -21.351,96.9 -29.183,145.89 -1.973,12.34 -3.711,24.71 -5.559,37.07 -1.387,9.27 1.149,-8.78 1.102,-8.38 -0.313,2.66 -0.699,5.32 -1.043,7.99 -0.91,7.1 -1.785,14.22 -2.621,21.34 -3.035,25.95 -5.547,51.96 -7.528,78 -7.742,101.74 -7.449,204.1 0.852,305.8 2.047,25.12 4.598,50.19 7.629,75.2 0.758,6.23 1.57,12.45 2.363,18.67 1.176,9.32 -1.191,-8.77 -1.125,-8.38 0.617,3.51 0.992,7.09 1.5,10.62 1.789,12.36 3.688,24.69 5.707,37.02 8.176,49.79 18.32,99.25 30.41,148.24 11.758,47.65 25.352,94.83 40.75,141.43 7.649,23.16 15.746,46.17 24.278,69.02 4.257,11.39 8.617,22.74 13.089,34.05 4.375,11.07 12.918,24.43 14.715,36.15 0.047,0.28 -6.781,-15.75 -3.152,-7.52 1.043,2.39 2.047,4.79 3.074,7.17 2.403,5.56 4.832,11.11 7.285,16.65 5.258,11.86 10.633,23.66 16.129,35.41 10.235,21.89 20.891,43.59 31.946,65.08 22.043,42.84 45.703,84.86 70.89,125.94 25.125,40.96 51.774,80.99 79.863,119.98 7.012,9.73 14.118,19.4 21.317,29.01 3.594,4.81 7.226,9.57 10.851,14.36 11.415,15.03 -9.011,-11.36 2.981,3.82 14.879,18.81 29.949,37.46 45.445,55.77 62.524,73.91 130.52,143.16 203.254,207.05 18.047,15.85 36.387,31.38 55.008,46.55 8.644,7.05 17.354,14.03 26.124,20.94 2.02,1.59 4.06,3.17 6.08,4.78 11.12,8.76 -2.97,-2.87 -4.28,-3.29 5.46,1.71 11.89,9.08 16.42,12.48 38.52,28.98 78.11,56.54 118.66,82.6 82.34,52.94 168.63,99.73 257.95,139.8 10.33,4.64 20.73,9.16 31.13,13.67 13.11,5.68 -15.31,-6.35 2.24,0.92 6.46,2.68 12.94,5.32 19.42,7.93 22.76,9.14 45.69,17.85 68.78,26.14 47.29,16.96 95.24,32.12 143.7,45.41 48.09,13.19 96.68,24.56 145.63,34.05 24.7,4.79 49.48,9.12 74.34,12.96 6.24,0.97 12.48,1.9 18.73,2.81 5.53,0.81 26.38,3.23 2.49,0.44 12.6,1.47 25.17,3.21 37.77,4.64 103.32,11.69 207.56,15.25 311.45,10.82 51.1,-2.18 102.13,-6.31 152.92,-12.4 6.3,-0.75 12.59,-1.56 18.88,-2.35 15.01,-1.89 -18.36,2.59 2.51,-0.38 12.5,-1.77 24.98,-3.68 37.43,-5.69 25.69,-4.15 51.29,-8.82 76.8,-13.98 97.15,-19.69 192.81,-46.72 285.9,-80.83 23.02,-8.42 45.87,-17.29 68.56,-26.58 2.41,-0.98 21.94,-9.13 9.61,-3.93 -11.65,4.91 6.06,-2.63 9.51,-4.13 11.19,-4.86 22.33,-9.82 33.42,-14.9 45.01,-20.56 89.23,-42.83 132.55,-66.73 85.39,-47.12 166.76,-100.77 244.49,-159.63 11.98,-9.08 -11.99,9.45 -0.19,0.15 4.71,-3.73 9.45,-7.43 14.16,-11.18 10.07,-8.02 20.07,-16.13 29.98,-24.34 18.49,-15.32 36.71,-30.99 54.63,-46.98 35.8,-31.95 70.43,-65.2 103.8,-99.68 33.35,-34.47 65.43,-70.16 96.16,-106.98 7.68,-9.2 15.28,-18.47 22.8,-27.82 3.75,-4.68 7.49,-9.36 11.2,-14.07 1.59,-2.02 3.17,-4.05 4.77,-6.07 9.13,-11.53 -7.82,10.35 -1.74,2.29 14.47,-19.16 28.88,-38.34 42.78,-57.91 56.25,-79.18 106.57,-162.57 150.32,-249.3 10.89,-21.58 21.37,-43.38 31.43,-65.36 4.68,-10.22 9.27,-20.49 13.77,-30.79 2.05,-4.68 3.9,-12.68 7.21,-16.7 0.17,-0.2 -6.56,15.84 -3.18,7.5 1.63,-4.01 3.33,-8.01 4.97,-12.02 18.47,-45.08 35.21,-90.88 50.18,-137.25 30.61,-94.79 53.76,-192 69.21,-290.42 1.8,-11.46 3.17,-23 5.09,-34.44 -4,23.82 -0.46,3.37 0.25,-2.29 0.78,-6.23 1.53,-12.46 2.26,-18.69 2.79,-24.16 5.12,-48.37 7,-72.61 3.88,-49.98 5.73,-100.08 5.8,-150.2 0.06,-42.66 37.46,-83.51 81.54,-81.54 44.13,1.97 81.61,35.83 81.55,81.54 -0.3,210.42 -32.94,421.99 -98.69,621.97 -63.62,193.53 -156.25,378.05 -275.37,543.38 -122.08,169.42 -267.33,317.42 -433.48,443.75 -163.15,124.05 -345.42,221.06 -537.94,291.03 -198.82,72.27 -409.85,111.82 -621.14,119.98 -213.56,8.25 -429.9,-17.07 -635.71,-74.72 -197.76,-55.4 -388.44,-141.11 -560.63,-253.1 C 885.402,3734.63 730.988,3599.62 601.238,3444.17 466.91,3283.23 359.402,3105.02 278.934,2911.57 198.754,2718.78 151.77,2513.6 135.359,2305.59 c -16.699,-211.74 1.52,-427.12 52.114,-633.37 48.703,-198.52 129.23,-390.66 236.082,-564.9 105.609,-172.218 237.41,-329.668 389.207,-462.988 153.07,-134.453 325.288,-247.223 511.348,-330.441 197.27,-88.25 404.1,-144.692 618.75,-169.539 214.24,-24.801 432.09,-14.102 643.49,28.128 202.98,40.551 400.16,113.61 581.5,213.352 177.47,97.598 341.3,222.867 482.14,368.41 140.62,145.317 260.71,312.258 351.8,492.858 93.38,185.14 159.24,384.23 190.85,589.28 16.15,104.77 25.25,210.28 25.41,316.31 0.05,42.65 -37.55,83.51 -81.55,81.53 -44.23,-1.98 -81.47,-35.82 -81.54,-81.53" /><path
         id="path18"
         style="fill:#fbc32c;fill-opacity:1;fill-rule:nonzero;stroke:none"
         d="m 3510.13,2152.69 c 0,-729.54 -598.34,-1320.948 -1336.43,-1320.948 -738.09,0 -1336.427,591.408 -1336.427,1320.948 0,729.53 598.337,1320.94 1336.427,1320.94 738.09,0 1336.43,-591.41 1336.43,-1320.94" /><path
         id="path20"
         style="fill:#fcd366;fill-opacity:1;fill-rule:nonzero;stroke:none"
         d="m 3416.07,2152.69 c -0.08,-59.26 -4.03,-118.41 -11.91,-177.14 1.12,8.34 2.24,16.67 3.36,25 -15.61,-113.9 -46.1,-225.35 -90.69,-331.34 3.16,7.49 6.32,14.98 9.48,22.48 -44.4,-104.75 -102.22,-203.37 -171.74,-293.43 4.91,6.35 9.81,12.69 14.71,19.03 -69.48,-89.51 -150.07,-169.95 -239.64,-239.35 6.35,4.9 12.69,9.8 19.03,14.7 -91.5,-70.53 -191.75,-129.1 -298.13,-174.16 7.49,3.17 14.98,6.32 22.47,9.48 -109.21,-45.901 -224.07,-77.218 -341.44,-93.269 8.33,1.129 16.67,2.25 25,3.36 -121.29,-16.231 -244.45,-16.231 -365.74,0 8.33,-1.11 16.67,-2.231 25,-3.36 -117.37,16.051 -232.23,47.368 -341.44,93.269 7.49,-3.16 14.98,-6.31 22.47,-9.48 -106.38,45.06 -206.63,103.63 -298.14,174.16 6.35,-4.9 12.69,-9.8 19.04,-14.7 -89.57,69.4 -170.16,149.84 -239.64,239.35 4.9,-6.34 9.8,-12.68 14.71,-19.03 -69.52,90.06 -127.34,188.68 -171.74,293.43 3.16,-7.5 6.32,-14.99 9.47,-22.48 -44.58,105.99 -75.072,217.44 -90.685,331.34 1.125,-8.33 2.242,-16.66 3.359,-25 -15.761,117.49 -15.761,236.78 0,354.27 -1.117,-8.34 -2.234,-16.67 -3.359,-25 15.613,113.92 46.105,225.35 90.685,331.34 -3.15,-7.49 -6.31,-14.98 -9.47,-22.47 44.4,104.74 102.22,203.37 171.74,293.42 -4.91,-6.34 -9.81,-12.69 -14.71,-19.03 69.48,89.51 150.07,169.95 239.64,239.36 -6.35,-4.91 -12.69,-9.81 -19.04,-14.71 91.51,70.53 191.76,129.1 298.14,174.16 -7.49,-3.16 -14.98,-6.32 -22.47,-9.48 109.21,45.91 224.07,77.22 341.44,93.27 -8.33,-1.13 -16.67,-2.25 -25,-3.36 121.29,16.23 244.45,16.23 365.74,0 -8.33,1.11 -16.67,2.23 -25,3.36 117.37,-16.05 232.23,-47.36 341.44,-93.27 -7.49,3.16 -14.98,6.32 -22.47,9.48 106.38,-45.06 206.63,-103.63 298.13,-174.16 -6.34,4.9 -12.68,9.8 -19.03,14.71 89.57,-69.41 170.16,-149.85 239.64,-239.36 -4.9,6.34 -9.8,12.69 -14.71,19.03 69.52,-90.05 127.34,-188.68 171.74,-293.42 -3.16,7.49 -6.32,14.98 -9.48,22.47 44.59,-105.99 75.08,-217.42 90.69,-331.34 -1.12,8.33 -2.24,16.66 -3.36,25 7.88,-58.73 11.83,-117.88 11.91,-177.13 0.07,-49.2 43.21,-96.33 94.06,-94.05 50.89,2.27 94.12,41.33 94.04,94.05 -0.2,146.48 -22.79,294.49 -68.56,433.73 -44.33,134.84 -108.37,263.95 -191.38,379.17 -43.2,59.95 -90.16,117.35 -141.77,170.27 -51.81,53.12 -108.18,100.83 -167.2,145.7 -113.82,86.53 -241.22,153.24 -375.47,202.03 -138.5,50.34 -286.01,77.39 -433.17,83.08 -148.62,5.73 -299.85,-12.14 -443.08,-52.26 -137.66,-38.57 -271.05,-98.25 -390.92,-176.21 -118.21,-76.87 -226.41,-170.62 -316.82,-278.94 -47.37,-56.75 -91.335,-116.66 -129.741,-179.86 -38.817,-63.86 -70.938,-130.83 -99.61,-199.77 -55.957,-134.53 -87.687,-277.73 -99.136,-422.84 -11.625,-147.44 1.636,-297.89 36.859,-441.48 33.902,-138.2 90.246,-272.54 164.625,-393.84 73.533,-119.9 165.313,-230.19 271.033,-323.04 106.67,-93.69 226.26,-172.989 355.95,-231 69.69,-31.168 141.08,-58.2 214.73,-78.399 74.12,-20.332 149.72,-33.472 226.02,-42.301 149.33,-17.289 301.07,-8.898 448.37,20.532 141.33,28.23 278.9,79.718 405.14,149.14 123.54,67.95 238.04,155.558 336.08,256.878 97.89,101.17 182.12,217.61 245.55,343.37 65.07,129.01 111.8,267.52 133.83,410.43 11.52,74.77 18.57,149.93 18.67,225.61 0.07,49.19 -43.3,96.32 -94.04,94.04 -51.02,-2.28 -93.98,-41.31 -94.06,-94.04" /><path
         id="path22"
         style="fill:#7078c4;fill-opacity:1;fill-rule:nonzero;stroke:none"
         d="m 2509.1,1751.77 c 0,-35.7 -39.52,-44.9 -39.52,-44.9 0,0 -87.59,-39.52 -245.85,-39.52 -158.25,0 -247.64,39.52 -247.64,39.52 0,0 -35.13,11.57 -35.13,44.11" /><path
         id="path24"
         style="fill:none;stroke:#3e56af;stroke-width:39.52560043;stroke-linecap:round;stroke-linejoin:round;stroke-miterlimit:10;stroke-dasharray:none;stroke-opacity:1"
         d="m 2509.1,1751.77 c 0,-35.7 -39.52,-44.9 -39.52,-44.9 0,0 -87.59,-39.52 -245.85,-39.52 -158.25,0 -247.64,39.52 -247.64,39.52 0,0 -35.13,11.57 -35.13,44.11" /><path
         id="path26"
         style="fill:#fef4da;fill-opacity:1;fill-rule:nonzero;stroke:none"
         d="m 2501.7,1777.52 c 0,0 -99.1,-44.72 -278.14,-44.72 -179.04,0 -280.17,44.72 -280.17,44.72 0,0 -39.75,13.08 -39.75,49.9 0,36.81 0,837.83 0,895.19 0,57.36 34.78,90.99 34.78,90.99 0,0 85.56,-44.72 291.01,-44.72 205.46,0 287.17,44.72 287.17,44.72 0,0 29.82,-35.01 29.82,-93.02 0,-58.02 0,-851.86 0,-892.26 0,-40.4 -44.72,-50.8 -44.72,-50.8" /><path
         id="path28"
         style="fill:none;stroke:#3e56af;stroke-width:44.7173996;stroke-linecap:round;stroke-linejoin:round;stroke-miterlimit:10;stroke-dasharray:none;stroke-opacity:1"
         d="m 2501.7,1777.52 c 0,0 -99.1,-44.72 -278.14,-44.72 -179.04,0 -280.17,44.72 -280.17,44.72 0,0 -39.75,13.08 -39.75,49.9 0,36.81 0,837.83 0,895.19 0,57.36 34.78,90.99 34.78,90.99 0,0 85.56,-44.72 291.01,-44.72 205.46,0 287.17,44.72 287.17,44.72 0,0 29.82,-35.01 29.82,-93.02 0,-58.02 0,-851.86 0,-892.26 0,-40.4 -44.72,-50.8 -44.72,-50.8 z" /><path
         id="path30"
         style="fill:#3e56af;fill-opacity:1;fill-rule:nonzero;stroke:none"
         d="m 2520,2864.56 c 0,-28.36 -130.75,-51.36 -292.04,-51.36 -161.29,0 -292.03,23 -292.03,51.36 0,28.37 130.74,51.36 292.03,51.36 161.29,0 292.04,-22.99 292.04,-51.36" /><path
         id="path32"
         style="fill:none;stroke:#3e56af;stroke-width:44.7173996;stroke-linecap:round;stroke-linejoin:round;stroke-miterlimit:10;stroke-dasharray:none;stroke-opacity:1"
         d="m 2520,2864.56 c 0,-28.36 -130.75,-51.36 -292.04,-51.36 -161.29,0 -292.03,23 -292.03,51.36 0,28.37 130.74,51.36 292.03,51.36 161.29,0 292.04,-22.99 292.04,-51.36 z" /><path
         id="path34"
         style="fill:#3e56af;fill-opacity:1;fill-rule:nonzero;stroke:none"
         d="m 2339.14,2509.95 c -40,0 -90.16,-46.66 -110.67,-77.7 -20.52,31.04 -70.68,77.7 -110.67,77.7 -63.32,0 -131.84,-96.58 -91.13,-167.58 40.72,-71.01 175.27,-268.28 201.8,-268.28 26.53,0 164.81,200.95 201.79,268.28 36.98,67.32 -27.8,167.58 -91.12,167.58" /><path
         id="path36"
         style="fill:none;stroke:#7078c4;stroke-width:41.76440048;stroke-linecap:round;stroke-linejoin:round;stroke-miterlimit:10;stroke-dasharray:none;stroke-opacity:1"
         d="m 2339.14,2509.95 c -40,0 -90.16,-46.66 -110.67,-77.7 -20.52,31.04 -70.68,77.7 -110.67,77.7 -63.32,0 -131.84,-96.58 -91.13,-167.58 40.72,-71.01 175.27,-268.28 201.8,-268.28 26.53,0 164.81,200.95 201.79,268.28 36.98,67.32 -27.8,167.58 -91.12,167.58 z" /><path
         id="path38"
         style="fill:#7078c4;fill-opacity:1;fill-rule:nonzero;stroke:none"
         d="m 1844.54,1605.57 c 0,-35.71 -39.53,-44.9 -39.53,-44.9 0,0 -87.59,-39.52 -245.84,-39.52 -158.25,0 -247.64,39.52 -247.64,39.52 0,0 -35.14,11.56 -35.14,44.1" /><path
         id="path40"
         style="fill:none;stroke:#3e56af;stroke-width:39.52560043;stroke-linecap:round;stroke-linejoin:round;stroke-miterlimit:10;stroke-dasharray:none;stroke-opacity:1"
         d="m 1844.54,1605.57 c 0,-35.71 -39.53,-44.9 -39.53,-44.9 0,0 -87.59,-39.52 -245.84,-39.52 -158.25,0 -247.64,39.52 -247.64,39.52 0,0 -35.14,11.56 -35.14,44.1" /><path
         id="path42"
         style="fill:#fef4da;fill-opacity:1;fill-rule:nonzero;stroke:none"
         d="m 1837.14,1631.31 c 0,0 -99.1,-44.71 -278.14,-44.71 -179.04,0 -280.17,44.71 -280.17,44.71 0,0 -39.75,13.09 -39.75,49.91 0,36.8 0,837.83 0,895.18 0,57.37 34.78,91 34.78,91 0,0 85.55,-44.73 291.01,-44.73 205.45,0 287.17,44.73 287.17,44.73 0,0 29.81,-35.02 29.81,-93.03 0,-58.01 0,-851.85 0,-892.26 0,-40.4 -44.71,-50.8 -44.71,-50.8" /><path
         id="path44"
         style="fill:none;stroke:#3e56af;stroke-width:44.7173996;stroke-linecap:round;stroke-linejoin:round;stroke-miterlimit:10;stroke-dasharray:none;stroke-opacity:1"
         d="m 1837.14,1631.31 c 0,0 -99.1,-44.71 -278.14,-44.71 -179.04,0 -280.17,44.71 -280.17,44.71 0,0 -39.75,13.09 -39.75,49.91 0,36.8 0,837.83 0,895.18 0,57.37 34.78,91 34.78,91 0,0 85.55,-44.73 291.01,-44.73 205.45,0 287.17,44.73 287.17,44.73 0,0 29.81,-35.02 29.81,-93.03 0,-58.01 0,-851.85 0,-892.26 0,-40.4 -44.71,-50.8 -44.71,-50.8 z" /><path
         id="path46"
         style="fill:#3e56af;fill-opacity:1;fill-rule:nonzero;stroke:none"
         d="m 1855.44,2718.36 c 0,-28.37 -130.75,-51.37 -292.04,-51.37 -161.29,0 -292.04,23 -292.04,51.37 0,28.36 130.75,51.36 292.04,51.36 161.29,0 292.04,-23 292.04,-51.36" /><path
         id="path48"
         style="fill:none;stroke:#3e56af;stroke-width:44.7173996;stroke-linecap:round;stroke-linejoin:round;stroke-miterlimit:10;stroke-dasharray:none;stroke-opacity:1"
         d="m 1855.44,2718.36 c 0,-28.37 -130.75,-51.37 -292.04,-51.37 -161.29,0 -292.04,23 -292.04,51.37 0,28.36 130.75,51.36 292.04,51.36 161.29,0 292.04,-23 292.04,-51.36 z" /><path
         id="path50"
         style="fill:#3e56af;fill-opacity:1;fill-rule:nonzero;stroke:none"
         d="m 1674.57,2363.74 c -39.99,0 -90.15,-46.65 -110.67,-77.7 -20.51,31.05 -70.67,77.7 -110.66,77.7 -63.32,0 -131.85,-96.57 -91.13,-167.57 40.72,-71.02 175.27,-268.28 201.79,-268.28 26.54,0 164.82,200.94 201.8,268.28 36.98,67.32 -27.81,167.57 -91.13,167.57" /><path
         id="path52"
         style="fill:none;stroke:#7078c4;stroke-width:41.76440048;stroke-linecap:round;stroke-linejoin:round;stroke-miterlimit:10;stroke-dasharray:none;stroke-opacity:1"
         d="m 1674.57,2363.74 c -39.99,0 -90.15,-46.65 -110.67,-77.7 -20.51,31.05 -70.67,77.7 -110.66,77.7 -63.32,0 -131.85,-96.57 -91.13,-167.57 40.72,-71.02 175.27,-268.28 201.79,-268.28 26.54,0 164.82,200.94 201.8,268.28 36.98,67.32 -27.81,167.57 -91.13,167.57 z" /><path
         id="path54"
         style="fill:#7078c4;fill-opacity:1;fill-rule:nonzero;stroke:none"
         d="m 2788.54,1582.34 c 0,-35.7 -39.53,-44.89 -39.53,-44.89 0,0 -87.6,-39.53 -245.85,-39.53 -158.25,0 -247.64,39.53 -247.64,39.53 0,0 -35.14,11.56 -35.14,44.1" /><path
         id="path56"
         style="fill:none;stroke:#3e56af;stroke-width:39.52560043;stroke-linecap:round;stroke-linejoin:round;stroke-miterlimit:10;stroke-dasharray:none;stroke-opacity:1"
         d="m 2788.54,1582.34 c 0,-35.7 -39.53,-44.89 -39.53,-44.89 0,0 -87.6,-39.53 -245.85,-39.53 -158.25,0 -247.64,39.53 -247.64,39.53 0,0 -35.14,11.56 -35.14,44.1" /><path
         id="path58"
         style="fill:#fef4da;fill-opacity:1;fill-rule:nonzero;stroke:none"
         d="m 2781.13,1608.09 c 0,0 -99.1,-44.72 -278.14,-44.72 -179.04,0 -280.17,44.72 -280.17,44.72 0,0 -39.75,13.08 -39.75,49.89 0,36.82 0,837.84 0,895.2 0,57.36 34.78,90.99 34.78,90.99 0,0 85.56,-44.72 291.02,-44.72 205.45,0 287.17,44.72 287.17,44.72 0,0 29.81,-35.01 29.81,-93.02 0,-58.02 0,-851.87 0,-892.27 0,-40.4 -44.72,-50.79 -44.72,-50.79" /><path
         id="path60"
         style="fill:none;stroke:#3e56af;stroke-width:44.7173996;stroke-linecap:round;stroke-linejoin:round;stroke-miterlimit:10;stroke-dasharray:none;stroke-opacity:1"
         d="m 2781.13,1608.09 c 0,0 -99.1,-44.72 -278.14,-44.72 -179.04,0 -280.17,44.72 -280.17,44.72 0,0 -39.75,13.08 -39.75,49.89 0,36.82 0,837.84 0,895.2 0,57.36 34.78,90.99 34.78,90.99 0,0 85.56,-44.72 291.02,-44.72 205.45,0 287.17,44.72 287.17,44.72 0,0 29.81,-35.01 29.81,-93.02 0,-58.02 0,-851.87 0,-892.27 0,-40.4 -44.72,-50.79 -44.72,-50.79 z" /><path
         id="path62"
         style="fill:#3e56af;fill-opacity:1;fill-rule:nonzero;stroke:none"
         d="m 2799.44,2695.13 c 0,-28.37 -455.04,-300.92 -616.33,-300.92 -161.29,0 -41.35,343.79 -41.35,372.16 0,28.37 204.35,-19.88 365.64,-19.88 161.28,0 292.04,-23 292.04,-51.36" /><path
         id="path64"
         style="fill:none;stroke:#3e56af;stroke-width:44.7173996;stroke-linecap:round;stroke-linejoin:round;stroke-miterlimit:10;stroke-dasharray:none;stroke-opacity:1"
         d="m 2799.44,2695.13 c 0,-28.37 -455.04,-300.92 -616.33,-300.92 -161.29,0 -41.35,343.79 -41.35,372.16 0,28.37 204.35,-19.88 365.64,-19.88 161.28,0 292.04,-23 292.04,-51.36 z" /><path
         id="path66"
         style="fill:#3e56af;fill-opacity:1;fill-rule:nonzero;stroke:none"
         d="m 2618.57,2340.51 c -39.99,0 -90.15,-46.66 -110.67,-77.69 -20.51,31.03 -70.68,77.69 -110.67,77.69 -63.32,0 -131.84,-96.57 -91.12,-167.57 40.71,-71.01 175.26,-268.29 201.79,-268.29 26.53,0 164.81,200.96 201.8,268.29 36.97,67.33 -27.81,167.57 -91.13,167.57" /><path
         id="path68"
         style="fill:none;stroke:#7078c4;stroke-width:41.76440048;stroke-linecap:round;stroke-linejoin:round;stroke-miterlimit:10;stroke-dasharray:none;stroke-opacity:1"
         d="m 2618.57,2340.51 c -39.99,0 -90.15,-46.66 -110.67,-77.69 -20.51,31.03 -70.68,77.69 -110.67,77.69 -63.32,0 -131.84,-96.57 -91.12,-167.57 40.71,-71.01 175.26,-268.29 201.79,-268.29 26.53,0 164.81,200.96 201.8,268.29 36.97,67.33 -27.81,167.57 -91.13,167.57 z" /><path
         id="path70"
         style="fill:#7078c4;fill-opacity:1;fill-rule:nonzero;stroke:none"
         d="m 3063.87,1413.34 c 0,-35.71 -39.53,-44.9 -39.53,-44.9 0,0 -87.59,-39.53 -245.85,-39.53 -158.25,0 -247.64,39.53 -247.64,39.53 0,0 -35.13,11.57 -35.13,44.1" /><path
         id="path72"
         style="fill:none;stroke:#3e56af;stroke-width:39.52560043;stroke-linecap:round;stroke-linejoin:round;stroke-miterlimit:10;stroke-dasharray:none;stroke-opacity:1"
         d="m 3063.87,1413.34 c 0,-35.71 -39.53,-44.9 -39.53,-44.9 0,0 -87.59,-39.53 -245.85,-39.53 -158.25,0 -247.64,39.53 -247.64,39.53 0,0 -35.13,11.57 -35.13,44.1" /><path
         id="path74"
         style="fill:#fef4da;fill-opacity:1;fill-rule:nonzero;stroke:none"
         d="m 3056.47,1439.09 c 0,0 -99.1,-44.72 -278.14,-44.72 -179.04,0 -280.18,44.72 -280.18,44.72 0,0 -39.75,13.07 -39.75,49.89 0,36.82 0,837.83 0,895.2 0,57.36 34.78,90.98 34.78,90.98 0,0 85.56,-44.72 291.02,-44.72 205.45,0 287.17,44.72 287.17,44.72 0,0 29.81,-35.01 29.81,-93.02 0,-58 0,-851.86 0,-892.26 0,-40.4 -44.71,-50.79 -44.71,-50.79" /><path
         id="path76"
         style="fill:none;stroke:#3e56af;stroke-width:44.7173996;stroke-linecap:round;stroke-linejoin:round;stroke-miterlimit:10;stroke-dasharray:none;stroke-opacity:1"
         d="m 3056.47,1439.09 c 0,0 -99.1,-44.72 -278.14,-44.72 -179.04,0 -280.18,44.72 -280.18,44.72 0,0 -39.75,13.07 -39.75,49.89 0,36.82 0,837.83 0,895.2 0,57.36 34.78,90.98 34.78,90.98 0,0 85.56,-44.72 291.02,-44.72 205.45,0 287.17,44.72 287.17,44.72 0,0 29.81,-35.01 29.81,-93.02 0,-58 0,-851.86 0,-892.26 0,-40.4 -44.71,-50.79 -44.71,-50.79 z" /><path
         id="path78"
         style="fill:#3e56af;fill-opacity:1;fill-rule:nonzero;stroke:none"
         d="m 3074.77,2526.13 c 0,-28.37 -130.75,-51.37 -292.04,-51.37 -161.29,0 -292.04,23 -292.04,51.37 0,28.36 130.75,51.36 292.04,51.36 161.29,0 292.04,-23 292.04,-51.36" /><path
         id="path80"
         style="fill:none;stroke:#3e56af;stroke-width:44.7173996;stroke-linecap:round;stroke-linejoin:round;stroke-miterlimit:10;stroke-dasharray:none;stroke-opacity:1"
         d="m 3074.77,2526.13 c 0,-28.37 -130.75,-51.37 -292.04,-51.37 -161.29,0 -292.04,23 -292.04,51.37 0,28.36 130.75,51.36 292.04,51.36 161.29,0 292.04,-23 292.04,-51.36 z" /><path
         id="path82"
         style="fill:#3e56af;fill-opacity:1;fill-rule:nonzero;stroke:none"
         d="m 2893.9,2171.51 c -39.99,0 -90.15,-46.66 -110.66,-77.7 -20.52,31.04 -70.68,77.7 -110.68,77.7 -63.31,0 -131.83,-96.56 -91.12,-167.58 40.72,-71 175.26,-268.28 201.8,-268.28 26.52,0 164.81,200.96 201.79,268.28 36.98,67.34 -27.81,167.58 -91.13,167.58" /><path
         id="path84"
         style="fill:none;stroke:#7078c4;stroke-width:41.76440048;stroke-linecap:round;stroke-linejoin:round;stroke-miterlimit:10;stroke-dasharray:none;stroke-opacity:1"
         d="m 2893.9,2171.51 c -39.99,0 -90.15,-46.66 -110.66,-77.7 -20.52,31.04 -70.68,77.7 -110.68,77.7 -63.31,0 -131.83,-96.56 -91.12,-167.58 40.72,-71 175.26,-268.28 201.8,-268.28 26.52,0 164.81,200.96 201.79,268.28 36.98,67.34 -27.81,167.58 -91.13,167.58 z" /><path
         id="path86"
         style="fill:#fef4da;fill-opacity:1;fill-rule:nonzero;stroke:none"
         d="m 2086.14,4035 c 24.59,-248.48 52.05,-472.77 52.58,-479.26 1.16,-14.06 -50.66,-100.86 -103.85,-199.56 -53.19,-98.7 -307.01,-539.34 -307.01,-539.34 -14.21,-56.59 8.5,-88.92 8.5,-88.92 206.03,-168.17 336.56,-206.96 374.1,-233.34 37.55,-26.39 262.57,-64.47 262.57,-64.47 -14.62,20.02 -170.54,428.32 -165.34,438.35 29.54,57.03 146.92,88.76 187.75,70.11 40.84,-18.66 8.81,-403.32 8.81,-403.32 123.14,-206.83 164.83,89.02 176.57,118.29 11.74,29.26 33.45,252.72 43.68,329.02 10.23,76.3 -42.09,549.94 -46.59,604.6 -1.81,22.01 2.6,199.47 10.58,409.37 -231.11,41.38 -245.88,44.33 -502.35,38.47" /><path
         id="path88"
         style="fill:none;stroke:#3e56af;stroke-width:70;stroke-linecap:round;stroke-linejoin:round;stroke-miterlimit:10;stroke-dasharray:none;stroke-opacity:1"
         d="m 2086.14,4035 c 24.59,-248.48 52.05,-472.77 52.58,-479.26 1.16,-14.06 -50.66,-100.86 -103.85,-199.56 -53.19,-98.7 -307.01,-539.34 -307.01,-539.34 -14.21,-56.59 8.5,-88.92 8.5,-88.92 206.03,-168.17 336.56,-206.96 374.1,-233.34 37.55,-26.39 262.57,-64.47 262.57,-64.47 -14.62,20.02 -170.54,428.32 -165.34,438.35 29.54,57.03 146.92,88.76 187.75,70.11 40.84,-18.66 8.81,-403.32 8.81,-403.32 123.14,-206.83 164.83,89.02 176.57,118.29 11.74,29.26 33.45,252.72 43.68,329.02 10.23,76.3 -42.09,549.94 -46.59,604.6 -1.81,22.01 2.6,199.47 10.58,409.37 -231.11,41.38 -245.88,44.33 -502.35,38.47 z" /><path
         id="path90"
         style="fill:none;stroke:#3e56af;stroke-width:44.7173996;stroke-linecap:round;stroke-linejoin:round;stroke-miterlimit:10;stroke-dasharray:none;stroke-opacity:1"
         d="m 2037.23,2784.39 130.06,-289.1" /><path
         id="path92"
         style="fill:none;stroke:#3e56af;stroke-width:44.7173996;stroke-linecap:round;stroke-linejoin:round;stroke-miterlimit:10;stroke-dasharray:none;stroke-opacity:1"
         d="m 1917.79,2682.87 48.95,-104" /><path
         id="path94"
         style="fill:#7078c4;fill-opacity:1;fill-rule:nonzero;stroke:none"
         d="m 2123.97,1436.14 c 0,-35.71 -39.52,-44.9 -39.52,-44.9 0,0 -87.6,-39.53 -245.85,-39.53 -158.25,0 -247.64,39.53 -247.64,39.53 0,0 -35.14,11.56 -35.14,44.1" /><path
         id="path96"
         style="fill:none;stroke:#3e56af;stroke-width:39.52560043;stroke-linecap:round;stroke-linejoin:round;stroke-miterlimit:10;stroke-dasharray:none;stroke-opacity:1"
         d="m 2123.97,1436.14 c 0,-35.71 -39.52,-44.9 -39.52,-44.9 0,0 -87.6,-39.53 -245.85,-39.53 -158.25,0 -247.64,39.53 -247.64,39.53 0,0 -35.14,11.56 -35.14,44.1" /><path
         id="path98"
         style="fill:#fef4da;fill-opacity:1;fill-rule:nonzero;stroke:none"
         d="m 2116.57,1461.88 c 0,0 -99.1,-44.72 -278.14,-44.72 -179.04,0 -280.17,44.72 -280.17,44.72 0,0 -39.75,13.09 -39.75,49.9 0,36.81 0,837.83 0,895.2 0,57.35 34.78,90.98 34.78,90.98 0,0 85.56,-44.71 291.01,-44.71 205.45,0 287.18,44.71 287.18,44.71 0,0 29.81,-35.01 29.81,-93.02 0,-58.01 0,-851.86 0,-892.26 0,-40.4 -44.72,-50.8 -44.72,-50.8" /><path
         id="path100"
         style="fill:none;stroke:#3e56af;stroke-width:44.7173996;stroke-linecap:round;stroke-linejoin:round;stroke-miterlimit:10;stroke-dasharray:none;stroke-opacity:1"
         d="m 2116.57,1461.88 c 0,0 -99.1,-44.72 -278.14,-44.72 -179.04,0 -280.17,44.72 -280.17,44.72 0,0 -39.75,13.09 -39.75,49.9 0,36.81 0,837.83 0,895.2 0,57.35 34.78,90.98 34.78,90.98 0,0 85.56,-44.71 291.01,-44.71 205.45,0 287.18,44.71 287.18,44.71 0,0 29.81,-35.01 29.81,-93.02 0,-58.01 0,-851.86 0,-892.26 0,-40.4 -44.72,-50.8 -44.72,-50.8 z" /><path
         id="path102"
         style="fill:#3e56af;fill-opacity:1;fill-rule:nonzero;stroke:none"
         d="m 2134.87,2548.92 c 0,-28.37 -130.75,-51.36 -292.03,-51.36 -161.29,0 -292.05,22.99 -292.05,51.36 0,28.37 130.76,51.37 292.05,51.37 161.28,0 292.03,-23 292.03,-51.37" /><path
         id="path104"
         style="fill:none;stroke:#3e56af;stroke-width:44.7173996;stroke-linecap:round;stroke-linejoin:round;stroke-miterlimit:10;stroke-dasharray:none;stroke-opacity:1"
         d="m 2134.87,2548.92 c 0,-28.37 -130.75,-51.36 -292.03,-51.36 -161.29,0 -292.05,22.99 -292.05,51.36 0,28.37 130.76,51.37 292.05,51.37 161.28,0 292.03,-23 292.03,-51.37 z" /><path
         id="path106"
         style="fill:#3e56af;fill-opacity:1;fill-rule:nonzero;stroke:none"
         d="m 1954.01,2194.31 c -39.99,0 -90.16,-46.66 -110.67,-77.7 -20.52,31.04 -70.68,77.7 -110.67,77.7 -63.32,0 -131.84,-96.57 -91.12,-167.58 40.71,-71 175.25,-268.28 201.79,-268.28 26.53,0 164.81,200.95 201.79,268.28 36.98,67.33 -27.8,167.58 -91.12,167.58" /><path
         id="path108"
         style="fill:none;stroke:#7078c4;stroke-width:41.76440048;stroke-linecap:round;stroke-linejoin:round;stroke-miterlimit:10;stroke-dasharray:none;stroke-opacity:1"
         d="m 1954.01,2194.31 c -39.99,0 -90.16,-46.66 -110.67,-77.7 -20.52,31.04 -70.68,77.7 -110.67,77.7 -63.32,0 -131.84,-96.57 -91.12,-167.58 40.71,-71 175.25,-268.28 201.79,-268.28 26.53,0 164.81,200.95 201.79,268.28 36.98,67.33 -27.8,167.58 -91.12,167.58 z" /><path
         id="path110"
         style="fill:#7078c4;fill-opacity:1;fill-rule:nonzero;stroke:none"
         d="m 2399.3,1267.13 c 0,-35.7 -39.52,-44.9 -39.52,-44.9 0,0 -87.59,-39.52 -245.85,-39.52 -158.25,0 -247.64,39.52 -247.64,39.52 0,0 -35.13,11.57 -35.13,44.11" /><path
         id="path112"
         style="fill:none;stroke:#3e56af;stroke-width:39.52560043;stroke-linecap:round;stroke-linejoin:round;stroke-miterlimit:10;stroke-dasharray:none;stroke-opacity:1"
         d="m 2399.3,1267.13 c 0,-35.7 -39.52,-44.9 -39.52,-44.9 0,0 -87.59,-39.52 -245.85,-39.52 -158.25,0 -247.64,39.52 -247.64,39.52 0,0 -35.13,11.57 -35.13,44.11" /><path
         id="path114"
         style="fill:#fef4da;fill-opacity:1;fill-rule:nonzero;stroke:none"
         d="m 2391.9,1292.88 c 0,0 -99.1,-44.72 -278.14,-44.72 -179.04,0 -280.17,44.72 -280.17,44.72 0,0 -39.75,13.08 -39.75,49.9 0,36.82 0,837.83 0,895.19 0,57.36 34.78,90.99 34.78,90.99 0,0 85.56,-44.72 291.01,-44.72 205.46,0 287.18,44.72 287.18,44.72 0,0 29.81,-35.01 29.81,-93.02 0,-58.01 0,-851.86 0,-892.26 0,-40.4 -44.72,-50.8 -44.72,-50.8" /><path
         id="path116"
         style="fill:none;stroke:#3e56af;stroke-width:44.7173996;stroke-linecap:round;stroke-linejoin:round;stroke-miterlimit:10;stroke-dasharray:none;stroke-opacity:1"
         d="m 2391.9,1292.88 c 0,0 -99.1,-44.72 -278.14,-44.72 -179.04,0 -280.17,44.72 -280.17,44.72 0,0 -39.75,13.08 -39.75,49.9 0,36.82 0,837.83 0,895.19 0,57.36 34.78,90.99 34.78,90.99 0,0 85.56,-44.72 291.01,-44.72 205.46,0 287.18,44.72 287.18,44.72 0,0 29.81,-35.01 29.81,-93.02 0,-58.01 0,-851.86 0,-892.26 0,-40.4 -44.72,-50.8 -44.72,-50.8 z" /><path
         id="path118"
         style="fill:#3e56af;fill-opacity:1;fill-rule:nonzero;stroke:none"
         d="m 2410.2,2379.92 c 0,-28.36 -130.74,-51.36 -292.03,-51.36 -161.29,0 -292.04,23 -292.04,51.36 0,28.37 130.75,51.36 292.04,51.36 161.29,0 292.03,-22.99 292.03,-51.36" /><path
         id="path120"
         style="fill:none;stroke:#3e56af;stroke-width:44.7173996;stroke-linecap:round;stroke-linejoin:round;stroke-miterlimit:10;stroke-dasharray:none;stroke-opacity:1"
         d="m 2410.2,2379.92 c 0,-28.36 -130.74,-51.36 -292.03,-51.36 -161.29,0 -292.04,23 -292.04,51.36 0,28.37 130.75,51.36 292.04,51.36 161.29,0 292.03,-22.99 292.03,-51.36 z" /><path
         id="path122"
         style="fill:#3e56af;fill-opacity:1;fill-rule:nonzero;stroke:none"
         d="m 2229.34,2025.31 c -39.99,0 -90.16,-46.66 -110.67,-77.7 -20.51,31.04 -70.68,77.7 -110.67,77.7 -63.32,0 -131.84,-96.57 -91.12,-167.58 40.71,-71.01 175.26,-268.28 201.79,-268.28 26.53,0 164.81,200.96 201.79,268.28 36.98,67.32 -27.8,167.58 -91.12,167.58" /><path
         id="path124"
         style="fill:none;stroke:#7078c4;stroke-width:41.76440048;stroke-linecap:round;stroke-linejoin:round;stroke-miterlimit:10;stroke-dasharray:none;stroke-opacity:1"
         d="m 2229.34,2025.31 c -39.99,0 -90.16,-46.66 -110.67,-77.7 -20.51,31.04 -70.68,77.7 -110.67,77.7 -63.32,0 -131.84,-96.57 -91.12,-167.58 40.71,-71.01 175.26,-268.28 201.79,-268.28 26.53,0 164.81,200.96 201.79,268.28 36.98,67.32 -27.8,167.58 -91.12,167.58 z" /><path
         id="path126"
         style="fill:#3e56af;fill-opacity:1;fill-rule:nonzero;stroke:none"
         d="m 1870.03,2587.68 h -100.42 v 70.89 h 100.42 v -70.89" /><path
         id="path128"
         style="fill:#3e56af;fill-opacity:1;fill-rule:nonzero;stroke:none"
         d="m 2147.67,2422.28 h -94.52 v 70.89 h 94.52 v -70.89" /></g></g></svg>